<svg xmlns="http://www.w3.org/2000/svg" xmlns:xlink="http://www.w3.org/1999/xlink" width="500" zoomAndPan="magnify" viewBox="0 0 375 374.999991" height="500" preserveAspectRatio="xMidYMid meet" version="1.0"><path fill="#f79045" d="M 158.28125 220.214844 C 157.085938 220.214844 156.183594 220.476562 155.570312 221.011719 L 156.199219 222.269531 C 156.628906 221.917969 157.300781 221.746094 158.234375 221.746094 C 159.691406 221.746094 160.582031 222.652344 160.890625 224.460938 L 154.144531 224.460938 L 154.144531 224.476562 L 153.316406 224.476562 C 152.671875 224.476562 152.027344 223.753906 151.996094 222.757812 C 151.980469 222.296875 151.921875 217.148438 151.921875 216.011719 L 150.3125 216.011719 L 150.371094 223.402344 C 150.371094 224.046875 149.730469 224.476562 149.097656 224.476562 L 145.496094 224.476562 C 145.097656 221.730469 143.703125 220.367188 141.324219 220.367188 L 143.441406 218.296875 L 142.292969 217.179688 L 138.167969 221.332031 L 138.765625 222.589844 C 139.5 222.113281 140.265625 221.867188 141.050781 221.867188 C 141.769531 221.867188 142.398438 222.082031 142.90625 222.515625 C 143.457031 222.988281 143.792969 223.632812 143.929688 224.476562 L 137.996094 224.476562 C 136.679688 224.519531 135.867188 223.863281 135.5625 222.480469 C 135.421875 221.839844 135.128906 221.316406 134.65625 220.90625 C 134.117188 220.429688 133.472656 220.199219 132.710938 220.199219 C 131.34375 220.199219 130.472656 220.78125 130.089844 221.960938 L 128.644531 221.960938 C 127.296875 221.960938 126.625 222.632812 126.636719 223.96875 L 126.714844 229.289062 L 128.324219 229.289062 L 128.261719 224.828125 C 128.25 224.398438 128.292969 224.089844 128.367188 223.921875 C 128.507812 223.679688 128.769531 223.554688 129.152344 223.554688 L 129.949219 223.554688 C 130.058594 224.230469 130.347656 224.796875 130.839844 225.242188 C 131.359375 225.714844 132.019531 225.960938 132.828125 225.960938 C 133.980469 225.960938 134.792969 225.519531 135.269531 224.628906 C 135.832031 225.527344 136.648438 225.96875 137.691406 225.960938 L 149.714844 225.960938 C 150.558594 225.960938 151.339844 225.457031 151.628906 224.71875 C 151.859375 225.425781 152.503906 225.960938 153.175781 225.960938 L 162.542969 225.960938 C 162.542969 224.382812 162.253906 223.09375 161.65625 222.082031 C 160.902344 220.84375 159.769531 220.214844 158.28125 220.214844 M 132.84375 224.644531 C 132.523438 224.644531 132.230469 224.523438 132.003906 224.261719 C 131.742188 223.972656 131.601562 223.574219 131.601562 223.097656 C 131.601562 222.605469 131.726562 222.222656 131.957031 221.929688 C 132.171875 221.671875 132.445312 221.546875 132.769531 221.546875 C 133.109375 221.546875 133.398438 221.671875 133.628906 221.929688 C 133.890625 222.222656 134.023438 222.621094 134.023438 223.097656 C 134.023438 224.078125 133.519531 224.644531 132.84375 224.644531 M 157.808594 228.292969 L 159.28125 228.292969 L 159.28125 226.746094 L 157.808594 226.746094 Z M 165.613281 213.945312 C 165.613281 213.714844 165.703125 213.59375 165.886719 213.59375 C 166.042969 213.59375 166.175781 213.652344 166.300781 213.792969 L 166.671875 213.226562 C 166.441406 212.933594 166.175781 212.792969 165.855469 212.792969 C 165.289062 212.792969 164.84375 213.273438 164.84375 213.882812 C 164.84375 214.070312 164.890625 214.222656 164.984375 214.359375 L 164.324219 214.359375 L 163.972656 215.109375 L 166.699219 215.109375 L 166.699219 214.359375 L 166.191406 214.359375 C 165.8125 214.359375 165.613281 214.222656 165.613281 213.945312 M 164.539062 216.042969 L 164.613281 225.964844 L 166.226562 225.964844 L 166.148438 216.042969 Z M 175.378906 218.835938 L 173.890625 218.835938 L 173.890625 220.382812 L 175.378906 220.382812 Z M 185.480469 220.199219 C 183.71875 220.199219 182.691406 221.304688 182.691406 223.082031 C 182.691406 223.570312 182.796875 224.03125 183.011719 224.476562 L 180.066406 224.476562 C 179.777344 224.476562 179.515625 224.355469 179.269531 224.089844 C 178.976562 223.800781 178.796875 223.417969 178.746094 222.957031 L 178.734375 221.824219 L 177.09375 221.824219 L 177.171875 224.96875 C 177.183594 225.6875 176.941406 226.316406 176.453125 226.835938 C 175.972656 227.375 175.390625 227.632812 174.703125 227.632812 C 174.011719 227.632812 173.429688 227.375 172.953125 226.851562 C 172.480469 226.34375 172.234375 225.714844 172.234375 224.996094 C 172.234375 224.933594 172.234375 224.445312 172.21875 223.527344 L 172.21875 221.839844 L 170.578125 221.839844 C 170.578125 222.007812 170.597656 222.558594 170.609375 223.511719 C 170.625 224.335938 170.640625 224.828125 170.640625 224.96875 C 170.640625 226.160156 171.039062 227.1875 171.835938 228.03125 C 172.632812 228.875 173.582031 229.304688 174.703125 229.304688 C 175.804688 229.304688 176.757812 228.890625 177.539062 228.0625 C 178.335938 227.234375 178.746094 226.238281 178.765625 225.058594 C 179.117188 225.65625 179.574219 225.960938 180.160156 225.960938 L 185.667969 225.960938 C 187.382812 225.960938 188.394531 224.859375 188.394531 223.082031 C 188.394531 222.332031 188.148438 221.671875 187.65625 221.117188 C 187.089844 220.503906 186.371094 220.199219 185.480469 220.199219 M 185.621094 224.644531 C 185.296875 224.644531 185.007812 224.523438 184.777344 224.261719 C 184.515625 223.96875 184.378906 223.570312 184.378906 223.097656 C 184.378906 222.609375 184.484375 222.222656 184.714844 221.933594 C 184.929688 221.671875 185.207031 221.546875 185.558594 221.546875 C 185.878906 221.546875 186.171875 221.671875 186.402344 221.933594 C 186.660156 222.222656 186.800781 222.621094 186.800781 223.097656 C 186.800781 224.078125 186.296875 224.644531 185.621094 224.644531 M 199.265625 221.824219 L 199.339844 224.964844 C 199.339844 225.703125 199.097656 226.332031 198.605469 226.855469 C 198.128906 227.371094 197.546875 227.636719 196.871094 227.636719 C 196.183594 227.636719 195.597656 227.375 195.125 226.855469 C 194.652344 226.347656 194.40625 225.71875 194.40625 224.996094 C 194.386719 224.078125 194.386719 223.019531 194.386719 221.839844 L 192.75 221.839844 L 192.808594 224.964844 C 192.808594 226.179688 193.207031 227.191406 194.003906 228.03125 C 194.804688 228.875 195.753906 229.304688 196.875 229.304688 C 197.992188 229.304688 198.957031 228.875 199.738281 228.03125 C 200.535156 227.191406 200.933594 226.179688 200.933594 224.984375 L 200.90625 221.824219 Z M 197.546875 218.835938 L 196.0625 218.835938 L 196.0625 220.382812 L 197.546875 220.382812 Z M 211.714844 216.535156 L 210.238281 216.535156 L 210.238281 218.082031 L 211.714844 218.082031 Z M 209.492188 216.535156 L 208.019531 216.535156 L 208.019531 218.082031 L 209.492188 218.082031 Z M 218.183594 217.578125 L 216.710938 217.578125 L 216.710938 219.128906 L 218.183594 219.128906 Z M 215.960938 217.578125 L 214.488281 217.578125 L 214.488281 219.128906 L 215.960938 219.128906 Z M 216.652344 220.371094 C 216.667969 220.75 216.667969 221.273438 216.683594 221.902344 C 216.699219 222.316406 216.699219 222.820312 216.699219 223.417969 C 216.699219 224.105469 216.253906 224.476562 215.65625 224.476562 L 213.277344 224.476562 C 212.617188 224.476562 212.082031 224.429688 211.667969 224.355469 C 212.386719 223.632812 212.742188 222.835938 212.742188 221.929688 C 212.742188 221.085938 212.449219 220.429688 211.871094 219.9375 C 211.347656 219.496094 210.6875 219.265625 209.90625 219.265625 C 209.125 219.265625 208.46875 219.496094 207.945312 219.9375 C 207.375 220.429688 207.085938 221.085938 207.085938 221.929688 C 207.085938 222.835938 207.453125 223.648438 208.175781 224.355469 C 207.792969 224.429688 207.253906 224.476562 206.59375 224.476562 L 205.324219 224.476562 C 204.890625 224.476562 204.617188 224.0625 204.617188 223.511719 L 204.554688 216.046875 L 202.929688 216.046875 L 202.976562 224.152344 C 202.976562 224.734375 203.160156 225.195312 203.496094 225.519531 C 203.789062 225.808594 204.15625 225.960938 204.589844 225.960938 L 207.421875 225.960938 C 208.238281 225.960938 209.082031 225.792969 209.925781 225.441406 C 210.765625 225.792969 211.609375 225.960938 212.453125 225.960938 L 216.257812 225.960938 C 217.589844 225.960938 218.308594 225.195312 218.308594 223.96875 C 218.308594 223.984375 218.292969 222.789062 218.277344 220.371094 Z M 210.609375 223.234375 C 210.332031 223.574219 210.101562 223.742188 209.921875 223.742188 C 209.738281 223.742188 209.507812 223.574219 209.230469 223.234375 C 208.878906 222.804688 208.710938 222.347656 208.710938 221.871094 C 208.710938 221.121094 209.171875 220.492188 209.921875 220.492188 C 210.289062 220.492188 210.582031 220.628906 210.8125 220.917969 C 211.007812 221.183594 211.117188 221.488281 211.117188 221.871094 C 211.117188 222.347656 210.945312 222.804688 210.609375 223.234375 M 221.371094 228.003906 C 221.371094 227.773438 221.46875 227.648438 221.652344 227.648438 C 221.804688 227.648438 221.941406 227.726562 222.0625 227.851562 L 222.433594 227.28125 C 222.203125 226.992188 221.941406 226.851562 221.617188 226.851562 C 221.050781 226.851562 220.605469 227.328125 220.605469 227.941406 C 220.605469 228.125 220.652344 228.277344 220.746094 228.417969 L 220.085938 228.417969 L 219.734375 229.167969 L 222.460938 229.167969 L 222.460938 228.417969 L 221.957031 228.417969 C 221.574219 228.417969 221.371094 228.277344 221.371094 228.003906 M 225.054688 228.292969 L 226.527344 228.292969 L 226.527344 226.746094 L 225.054688 226.746094 Z M 226.359375 220.371094 C 226.371094 220.75 226.371094 221.273438 226.386719 221.902344 C 226.402344 222.316406 226.402344 222.820312 226.402344 223.417969 C 226.402344 224.105469 225.960938 224.476562 225.359375 224.476562 L 222.691406 224.476562 C 222.265625 224.476562 221.984375 224.0625 221.984375 223.507812 L 221.925781 216.046875 L 220.300781 216.046875 L 220.347656 224.15625 C 220.347656 224.734375 220.53125 225.195312 220.867188 225.515625 C 221.15625 225.808594 221.527344 225.960938 221.957031 225.960938 L 225.957031 225.960938 C 227.289062 225.960938 228.011719 225.195312 228.011719 223.96875 C 228.011719 223.988281 227.996094 222.789062 227.980469 220.371094 Z M 265.070312 217.59375 L 263.585938 217.59375 L 263.585938 219.140625 L 265.070312 219.140625 Z M 265.191406 220.371094 L 263.570312 220.371094 C 263.582031 220.75 263.582031 221.273438 263.597656 221.902344 C 263.613281 222.316406 263.613281 222.820312 263.613281 223.417969 C 263.613281 224.105469 263.171875 224.476562 262.570312 224.476562 L 258.628906 224.476562 C 258.21875 224.476562 257.925781 224.429688 257.722656 224.320312 C 258.796875 223.433594 259.65625 222.375 260.289062 221.164062 C 259.230469 220.125 257.621094 219.496094 255.917969 219.496094 C 254.488281 219.496094 253.21875 219.90625 252.082031 220.738281 L 252.082031 221.992188 C 253.203125 222.054688 254.320312 222.757812 255.441406 224.09375 C 254.84375 224.355469 254.261719 224.476562 253.695312 224.476562 L 250.042969 224.476562 C 250.042969 223.710938 249.78125 223.050781 249.277344 222.5 C 248.742188 221.902344 248.019531 221.59375 247.117188 221.59375 C 245.382812 221.59375 244.308594 222.695312 244.308594 224.480469 L 243.234375 224.480469 L 243.234375 224.476562 L 241.855469 224.476562 C 241.195312 224.476562 240.566406 223.820312 240.539062 223.066406 L 240.492188 215.878906 L 238.851562 215.878906 L 238.957031 224.96875 C 238.957031 226.390625 237.855469 227.632812 236.488281 227.632812 C 235.800781 227.632812 235.234375 227.375 234.742188 226.851562 C 233.914062 225.964844 234.054688 225.734375 234.007812 223.527344 L 233.976562 221.839844 L 232.367188 221.839844 C 232.367188 221.839844 232.429688 224.878906 232.429688 224.96875 C 232.429688 227.328125 234.269531 229.304688 236.488281 229.304688 C 238.699219 229.304688 240.523438 227.375 240.554688 225.058594 C 240.90625 225.660156 241.382812 225.964844 241.949219 225.964844 L 244.707031 225.964844 C 245.246094 226.898438 246.089844 227.359375 247.238281 227.359375 C 248.449219 227.359375 249.277344 226.898438 249.722656 225.964844 L 253.707031 225.964844 C 254.550781 225.964844 255.441406 225.71875 256.34375 225.230469 C 256.761719 225.71875 257.28125 225.964844 257.910156 225.964844 L 263.171875 225.964844 C 264.503906 225.964844 265.222656 225.199219 265.222656 223.972656 C 265.222656 223.988281 265.207031 222.789062 265.191406 220.371094 M 247.253906 226.023438 C 246.929688 226.023438 246.640625 225.902344 246.410156 225.640625 C 246.148438 225.351562 246.011719 224.96875 246.011719 224.476562 C 246.011719 223.984375 246.132812 223.601562 246.363281 223.324219 C 246.582031 223.066406 246.855469 222.941406 247.195312 222.941406 C 247.515625 222.941406 247.804688 223.066406 248.035156 223.324219 C 248.296875 223.617188 248.433594 224 248.433594 224.476562 C 248.433594 225.472656 247.925781 226.023438 247.253906 226.023438 M 256.699219 223.265625 C 255.933594 222.222656 255.117188 221.578125 254.261719 221.351562 C 254.769531 221.121094 255.332031 220.996094 255.945312 220.996094 C 256.910156 220.996094 257.664062 221.195312 258.214844 221.609375 C 257.832031 222.238281 257.328125 222.789062 256.699219 223.265625 " fill-opacity="1" fill-rule="nonzero"/><path fill="#14539b" d="M 77.710938 149.15625 C 84.132812 149.941406 92.683594 153.757812 97.972656 159.648438 C 91.050781 151.097656 81.675781 145.316406 72.65625 144.992188 C 58.019531 144.460938 49.847656 158.484375 54.40625 176.304688 C 55.046875 178.78125 55.886719 181.210938 56.917969 183.558594 C 58.363281 187.160156 60.378906 190.804688 62.988281 194.316406 C 64.699219 196.640625 66.59375 198.824219 68.601562 200.859375 C 67.1875 199.351562 65.859375 197.769531 64.628906 196.109375 C 52.683594 179.960938 54.183594 162.101562 68.625 156.925781 C 74.921875 154.667969 83.074219 155.65625 90.644531 158.179688 C 83.492188 153.183594 74.824219 150.0625 65.203125 153.328125 C 61.644531 154.539062 58.960938 156.742188 57.109375 159.636719 C 60.121094 152.058594 66.800781 147.832031 77.710938 149.15625 " fill-opacity="1" fill-rule="nonzero"/><path fill="#f79045" d="M 109.246094 182.558594 L 109.132812 182.558594 C 117.683594 196.679688 119.566406 211.128906 113.941406 218.863281 C 106.308594 229.363281 86.394531 223.585938 69.460938 205.929688 C 52.9375 188.6875 45.367188 166.507812 52.164062 155.703125 C 52.003906 155.898438 51.847656 156.097656 51.699219 156.304688 C 43.53125 167.519531 51.589844 191.921875 69.679688 210.792969 C 87.777344 229.648438 109.066406 235.839844 117.222656 224.613281 C 123.675781 215.746094 119.992188 198.648438 109.246094 182.558594 " fill-opacity="1" fill-rule="nonzero"/><path fill="#f79045" d="M 105.253906 175.589844 C 107.398438 178.199219 108.066406 181.199219 106.738281 182.304688 C 105.40625 183.414062 102.570312 182.199219 100.417969 179.597656 C 98.273438 177.003906 97.601562 174 98.933594 172.890625 C 100.261719 171.789062 103.097656 172.992188 105.253906 175.589844 " fill-opacity="1" fill-rule="nonzero"/><path fill="#14539b" d="M 288.449219 173.265625 C 287.417969 172.441406 286.390625 171.625 285.386719 170.816406 C 287.855469 170.054688 289.714844 169.492188 290.945312 169.121094 C 291.25 168.074219 291.507812 167.121094 291.695312 166.25 L 283.457031 168.683594 C 283.308594 169.257812 283.167969 169.828125 283.039062 170.382812 C 282.835938 171.09375 282.746094 171.667969 282.746094 172.082031 C 282.746094 172.234375 283.054688 172.640625 283.6875 173.289062 C 284.320312 173.949219 284.722656 174.273438 284.898438 174.273438 C 285.09375 174.273438 285.242188 174.167969 285.335938 173.964844 L 288.25 176.230469 L 281.738281 176.230469 C 281.0625 176.230469 280.664062 176.023438 280.511719 175.621094 C 280.269531 174.886719 280.003906 173.65625 279.703125 171.9375 C 279.382812 169.933594 279.125 168.609375 278.988281 168.007812 L 278.851562 167.929688 L 277.285156 170.609375 C 277.320312 170.863281 277.421875 171.128906 277.542969 171.410156 C 276.589844 171.949219 275.644531 172.476562 274.683594 173.023438 C 274.03125 173.4375 273.539062 173.941406 273.230469 174.511719 C 272.914062 175.089844 272.574219 176.132812 272.183594 177.675781 L 276.917969 178.511719 C 277.136719 178.558594 277.441406 178.273438 277.800781 177.652344 C 278.199219 176.917969 278.460938 176.503906 278.582031 176.40625 C 278.753906 176.984375 278.925781 177.53125 279.105469 178.085938 C 279.402344 178.75 279.832031 179.078125 280.394531 179.078125 L 289.871094 179.078125 C 290.425781 177.292969 290.710938 176.269531 290.710938 176.003906 C 290.710938 175.488281 289.957031 174.574219 288.449219 173.265625 M 275.65625 174.761719 C 276.054688 174.449219 276.375 174.207031 276.664062 174.09375 C 277.210938 173.566406 277.605469 173.136719 277.824219 172.804688 L 278.300781 175.113281 Z M 211.292969 170.734375 L 209.804688 173.289062 C 210.550781 174.304688 211.082031 175.289062 211.417969 176.230469 L 204.714844 176.230469 C 204.027344 176.230469 203.625 176.019531 203.492188 175.621094 C 203.230469 174.886719 202.960938 173.65625 202.671875 171.9375 C 202.351562 169.933594 202.09375 168.609375 201.9375 168.007812 L 201.804688 167.929688 L 200.242188 170.609375 C 200.296875 170.863281 200.386719 171.128906 200.507812 171.40625 C 199.546875 171.945312 198.597656 172.476562 197.664062 173.019531 C 197.003906 173.433594 196.519531 173.941406 196.191406 174.511719 C 195.890625 175.089844 195.539062 176.132812 195.15625 177.675781 L 199.882812 178.511719 C 200.113281 178.558594 200.390625 178.273438 200.769531 177.652344 C 201.171875 176.914062 201.421875 176.503906 201.550781 176.402344 C 201.726562 176.984375 201.898438 177.53125 202.074219 178.082031 C 202.367188 178.75 202.792969 179.078125 203.359375 179.078125 L 212.734375 179.078125 C 213.113281 177.078125 213.308594 175.722656 213.308594 175.015625 C 213.308594 173.773438 212.644531 172.339844 211.292969 170.734375 M 198.632812 174.761719 C 199.003906 174.449219 199.34375 174.207031 199.617188 174.097656 C 200.171875 173.566406 200.570312 173.136719 200.789062 172.800781 L 201.269531 175.109375 Z M 209.375 181.453125 C 209.0625 181.808594 208.839844 181.976562 208.71875 181.976562 C 208.527344 181.976562 207.898438 181.617188 206.871094 180.878906 C 206.351562 181.46875 205.882812 182.058594 205.464844 182.652344 C 205.882812 183.027344 206.542969 183.460938 207.453125 183.933594 C 207.976562 183.390625 208.371094 183.003906 208.621094 182.765625 L 210.597656 183.933594 C 211.050781 183.5625 211.550781 182.976562 212.082031 182.132812 L 210.027344 180.855469 C 209.925781 180.90625 209.710938 181.101562 209.375 181.453125 M 185.859375 167.421875 C 185.773438 167.199219 185.734375 166.90625 185.707031 166.554688 L 185.542969 166.425781 C 184.988281 167.039062 184.378906 168.058594 183.699219 169.488281 C 183.964844 169.832031 184.242188 170.109375 184.492188 170.292969 C 184.652344 170.683594 184.839844 171.59375 185.070312 173.050781 C 185.292969 174.496094 185.414062 175.46875 185.414062 175.960938 C 185.414062 176.050781 185.382812 176.132812 185.332031 176.230469 L 183.378906 176.230469 C 182.96875 176.230469 182.722656 176.210938 182.679688 176.203125 C 182.433594 176.164062 182.296875 176.019531 182.261719 175.785156 C 182.171875 175.148438 182.058594 173.585938 181.902344 171.089844 C 181.78125 169.121094 181.554688 167.566406 181.265625 166.417969 L 181.175781 166.339844 L 179.148438 169.175781 L 180.207031 176.230469 L 177.488281 176.230469 L 177.488281 176.234375 L 176.992188 176.234375 C 176.246094 176.234375 175.199219 175.496094 173.878906 174.027344 C 172.953125 172.960938 172.03125 171.902344 171.105469 170.847656 L 177.03125 169.648438 C 177.34375 168.671875 177.59375 167.730469 177.785156 166.84375 C 177.578125 166.816406 174.980469 167.332031 169.980469 168.417969 C 169.5 169.691406 169.136719 170.992188 168.914062 172.308594 L 172.988281 176.234375 L 168.9375 176.234375 L 168.9375 176.230469 L 166.480469 176.230469 C 166.785156 175.542969 167.0625 174.851562 167.34375 174.171875 C 167.714844 173.253906 167.890625 172.558594 167.890625 172.09375 L 167.890625 170.597656 C 167.097656 170.597656 166.191406 171.058594 165.179688 171.964844 C 164.308594 172.726562 163.628906 173.519531 163.132812 174.390625 C 162.773438 175.195312 162.511719 175.800781 162.363281 176.230469 L 160.992188 176.230469 C 159.902344 176.230469 159.082031 175.84375 158.488281 175.089844 C 157.957031 174.304688 157.445312 173.519531 156.921875 172.726562 C 156.78125 172.910156 156.5 173.34375 156.078125 174.039062 C 155.640625 174.734375 155.4375 175.140625 155.4375 175.242188 C 155.4375 175.28125 155.695312 175.621094 156.191406 176.289062 C 156.699219 176.9375 156.949219 177.40625 156.949219 177.707031 C 156.949219 178.324219 156.210938 179.109375 154.769531 180.074219 C 153.335938 181.046875 152.25 181.53125 151.496094 181.53125 C 151.011719 181.53125 150.457031 181.355469 149.820312 180.988281 C 149.203125 180.640625 148.917969 180.460938 148.96875 180.460938 C 148.875 180.460938 148.835938 180.476562 148.835938 180.523438 L 148.835938 180.855469 C 149.304688 181.390625 150.160156 181.9375 151.371094 182.5625 C 152.613281 183.171875 153.542969 183.46875 154.179688 183.46875 C 155.144531 183.46875 156.007812 182.910156 156.796875 181.773438 C 157.363281 180.808594 157.886719 179.863281 158.421875 178.914062 L 158.554688 178.761719 C 158.992188 178.980469 159.332031 179.078125 159.578125 179.078125 L 161.5 179.078125 C 161.570312 179.078125 161.78125 179.398438 162.09375 180.039062 C 162.511719 180.839844 162.894531 181.4375 163.222656 181.832031 C 163.738281 182.480469 164.292969 182.796875 164.828125 182.796875 C 166.261719 182.796875 167.351562 181.558594 168.125 179.085938 L 173.082031 179.085938 L 174.160156 177.3125 L 176.046875 179.085938 L 178.203125 179.085938 L 178.203125 179.078125 L 179.324219 179.078125 L 180.25 177.351562 C 180.265625 177.6875 180.28125 178.015625 180.304688 178.347656 C 180.378906 178.839844 180.511719 179.074219 180.722656 179.074219 L 186.066406 179.074219 C 186.300781 178.953125 186.4375 178.867188 186.476562 178.8125 C 186.59375 178.65625 186.742188 178.140625 186.9375 177.257812 C 187.128906 176.359375 187.214844 175.816406 187.175781 175.597656 L 186.882812 172.0625 L 188.914062 169.429688 C 188.445312 169.214844 187.886719 168.910156 187.242188 168.515625 C 186.410156 168.019531 185.953125 167.648438 185.859375 167.421875 M 166.320312 179.988281 L 165.71875 179.988281 C 165.273438 179.988281 164.828125 179.835938 164.421875 179.539062 C 164.007812 179.246094 163.695312 178.886719 163.515625 178.457031 C 164.011719 178.457031 164.542969 178.578125 165.101562 178.8125 C 165.71875 179.078125 166.132812 179.425781 166.316406 179.804688 L 166.316406 179.988281 Z M 165.511719 174.976562 C 164.972656 175.195312 164.398438 175.40625 163.847656 175.636719 L 163.667969 175.636719 C 164.746094 174.242188 165.613281 173.328125 166.246094 172.914062 C 166.304688 173.082031 166.320312 173.273438 166.320312 173.511719 C 166.320312 174.207031 166.050781 174.699219 165.511719 174.976562 M 309.90625 179.078125 L 313.402344 179.078125 C 313.625 178.75 313.8125 178.507812 313.929688 178.347656 C 314.085938 178.679688 314.195312 178.914062 314.269531 179.078125 L 318.972656 179.078125 C 319.207031 178.957031 319.359375 178.867188 319.382812 178.8125 C 319.5 178.660156 319.660156 178.144531 319.851562 177.257812 C 320.058594 176.363281 320.121094 175.820312 320.097656 175.597656 L 319.78125 172.0625 L 321.839844 169.429688 C 321.359375 169.21875 320.808594 168.910156 320.164062 168.515625 C 319.328125 168.019531 318.867188 167.648438 318.777344 167.421875 C 318.675781 167.199219 318.628906 166.90625 318.621094 166.554688 L 318.46875 166.425781 C 317.910156 167.035156 317.285156 168.058594 316.617188 169.488281 C 316.882812 169.832031 317.148438 170.109375 317.417969 170.292969 C 317.574219 170.683594 317.761719 171.59375 317.976562 173.050781 C 318.210938 174.496094 318.332031 175.46875 318.332031 175.960938 C 318.332031 176.050781 318.292969 176.132812 318.230469 176.230469 L 315.742188 176.230469 C 314.933594 176.230469 314.542969 175.675781 314.542969 174.597656 C 314.554688 174.527344 314.570312 174.394531 314.570312 174.226562 C 314.570312 174.046875 314.554688 173.929688 314.542969 173.835938 C 314.542969 173.382812 314.503906 173.019531 314.4375 172.726562 C 314.230469 172.859375 313.894531 173.207031 313.429688 173.796875 C 312.957031 174.382812 312.726562 174.789062 312.726562 174.988281 C 312.726562 175.089844 312.746094 175.242188 312.800781 175.445312 C 312.855469 175.648438 312.882812 175.800781 312.882812 175.910156 C 312.882812 176.019531 312.84375 176.121094 312.746094 176.230469 C 311.546875 176.171875 310.875 176.171875 310.777344 176.230469 C 311.070312 175.015625 311.21875 173.882812 311.21875 172.800781 C 311.21875 172.726562 311.179688 172.628906 311.136719 172.523438 C 310.863281 172.765625 310.488281 173.210938 310.011719 173.835938 C 309.492188 174.554688 309.238281 175.039062 309.238281 175.28125 C 309.238281 175.757812 309.152344 176.070312 309.007812 176.230469 L 306.699219 176.230469 C 307.234375 174.714844 307.488281 173.722656 307.488281 173.25 L 307.414062 172.59375 C 307.167969 172.699219 306.789062 173.042969 306.277344 173.613281 C 305.777344 174.203125 305.527344 174.609375 305.527344 174.847656 C 305.527344 175.339844 305.421875 175.800781 305.183594 176.230469 L 302.625 176.230469 C 301.546875 176.230469 300.71875 175.84375 300.121094 175.089844 C 299.609375 174.304688 299.082031 173.519531 298.5625 172.726562 C 298.425781 172.910156 298.136719 173.34375 297.710938 174.039062 C 297.300781 174.734375 297.085938 175.136719 297.085938 175.238281 C 297.085938 175.28125 297.339844 175.617188 297.828125 176.289062 C 298.339844 176.9375 298.597656 177.402344 298.597656 177.707031 C 298.597656 178.320312 297.863281 179.109375 296.414062 180.074219 C 294.980469 181.042969 293.882812 181.53125 293.132812 181.53125 C 292.644531 181.53125 292.097656 181.355469 291.464844 180.988281 C 290.832031 180.640625 290.546875 180.460938 290.597656 180.460938 C 290.511719 180.460938 290.476562 180.476562 290.476562 180.523438 L 290.476562 180.855469 C 290.945312 181.390625 291.785156 181.9375 293.015625 182.5625 C 294.242188 183.167969 295.164062 183.464844 295.8125 183.464844 C 296.777344 183.464844 297.65625 182.910156 298.453125 181.773438 C 298.996094 180.808594 299.539062 179.863281 300.074219 178.914062 L 300.203125 178.761719 C 300.644531 178.980469 300.972656 179.074219 301.21875 179.074219 L 304.523438 179.074219 C 304.679688 179.074219 304.84375 178.96875 305.046875 178.753906 C 305.234375 178.539062 305.371094 178.402344 305.453125 178.347656 C 305.605469 178.613281 305.683594 178.859375 305.699219 179.074219 L 308.78125 179.074219 C 308.84375 179.074219 308.933594 179.003906 309.085938 178.847656 C 309.234375 178.6875 309.335938 178.605469 309.382812 178.605469 C 309.507812 178.605469 309.675781 178.765625 309.90625 179.078125 M 147.515625 182.402344 C 147.515625 182.277344 147.210938 181.933594 146.570312 181.359375 C 145.925781 180.789062 145.5625 180.488281 145.449219 180.488281 C 145.347656 180.488281 144.988281 180.789062 144.386719 181.359375 C 143.785156 181.933594 143.492188 182.269531 143.492188 182.378906 C 143.492188 182.484375 143.777344 182.765625 144.371094 183.242188 C 144.941406 183.710938 145.3125 183.96875 145.472656 183.976562 C 146.847656 183.210938 147.515625 182.679688 147.515625 182.402344 M 127.867188 178.476562 C 128.378906 178.605469 128.890625 178.738281 129.390625 178.882812 C 128.867188 179.160156 128.390625 179.515625 127.953125 179.949219 C 127.410156 180.503906 127.148438 181 127.167969 181.4375 L 127.167969 181.617188 C 128.960938 180.007812 131.0625 179.160156 133.460938 179.085938 C 134.035156 178.289062 134.554688 177.527344 135 176.816406 C 131.578125 176.816406 129.585938 176.503906 128.972656 175.835938 C 129.554688 175.402344 129.996094 175.1875 130.332031 175.1875 C 130.617188 175.1875 130.960938 175.292969 131.320312 175.503906 C 131.609375 175.714844 131.910156 175.921875 132.203125 176.101562 C 132.953125 174.976562 133.332031 174.382812 133.332031 174.277344 C 133.332031 173.902344 133.160156 173.558594 132.804688 173.269531 C 132.453125 172.972656 132.078125 172.824219 131.691406 172.824219 C 130.542969 172.824219 129.457031 173.300781 128.445312 174.273438 C 127.4375 175.242188 126.9375 176.292969 126.9375 177.441406 C 126.9375 177.9375 127.257812 178.285156 127.867188 178.476562 M 257.480469 178.8125 C 257.59375 178.660156 257.757812 178.144531 257.9375 177.257812 C 258.128906 176.363281 258.214844 175.820312 258.175781 175.597656 L 257.878906 172.066406 L 259.917969 169.429688 C 259.441406 169.21875 258.894531 168.910156 258.25 168.519531 C 257.414062 168.019531 256.9375 167.648438 256.859375 167.421875 C 256.765625 167.199219 256.722656 166.90625 256.714844 166.554688 L 256.542969 166.425781 C 255.984375 167.039062 255.371094 168.058594 254.699219 169.488281 C 254.972656 169.832031 255.242188 170.109375 255.503906 170.292969 C 255.660156 170.683594 255.84375 171.59375 256.066406 173.054688 C 256.304688 174.496094 256.398438 175.46875 256.398438 175.960938 C 256.398438 176.050781 256.378906 176.132812 256.335938 176.230469 L 253.828125 176.230469 C 253.023438 176.230469 252.625 175.679688 252.625 174.601562 C 252.632812 174.527344 252.65625 174.394531 252.65625 174.226562 C 252.65625 174.046875 252.636719 173.929688 252.625 173.835938 C 252.625 173.382812 252.589844 173.019531 252.519531 172.726562 C 252.3125 172.863281 251.976562 173.210938 251.503906 173.796875 C 251.03125 174.386719 250.804688 174.789062 250.804688 174.992188 C 250.804688 175.089844 250.839844 175.242188 250.882812 175.445312 C 250.929688 175.648438 250.96875 175.800781 250.96875 175.910156 C 250.96875 176.019531 250.90625 176.121094 250.839844 176.230469 C 249.617188 176.171875 248.960938 176.171875 248.859375 176.230469 C 249.148438 175 249.285156 173.863281 249.285156 172.796875 C 249.285156 172.710938 249.265625 172.605469 249.214844 172.507812 C 248.9375 172.75 248.558594 173.195312 248.089844 173.824219 C 247.570312 174.539062 247.320312 175.027344 247.320312 175.273438 C 247.320312 175.746094 247.238281 176.074219 247.085938 176.230469 L 244.78125 176.230469 C 245.292969 174.714844 245.574219 173.722656 245.574219 173.253906 L 245.515625 172.59375 C 245.25 172.699219 244.867188 173.042969 244.363281 173.617188 C 243.855469 174.207031 243.605469 174.609375 243.605469 174.851562 C 243.605469 175.339844 243.5 175.800781 243.273438 176.230469 L 239.453125 176.230469 C 239.648438 175.921875 239.832031 175.613281 239.996094 175.316406 C 240.242188 174.9375 240.339844 174.625 240.339844 174.382812 C 240.339844 173.675781 239.957031 173.042969 239.199219 172.507812 C 238.480469 172.023438 237.765625 171.785156 237.03125 171.785156 C 235.816406 171.785156 234.910156 172.082031 234.347656 172.691406 C 234.015625 173.042969 233.574219 173.863281 232.976562 175.195312 C 233.546875 175.132812 233.863281 175.089844 233.917969 175.089844 C 234.734375 175.089844 235.417969 175.46875 235.957031 176.230469 L 231.109375 176.230469 C 230.644531 173.226562 229.824219 171.734375 228.628906 171.734375 C 227.867188 171.734375 227.109375 172.46875 226.339844 173.925781 C 225.660156 175.226562 225.328125 176.289062 225.328125 177.101562 C 225.328125 177.859375 225.769531 178.386719 226.648438 178.683594 C 226.769531 178.734375 227.519531 178.882812 228.917969 179.128906 C 228.285156 179.730469 227.511719 180.292969 226.617188 180.769531 C 225.582031 181.3125 224.691406 181.570312 223.921875 181.570312 C 223.691406 181.570312 223.3125 181.503906 222.8125 181.367188 C 222.292969 181.230469 221.921875 181.167969 221.65625 181.167969 C 221.582031 181.167969 221.496094 181.199219 221.425781 181.261719 L 221.425781 181.503906 C 221.867188 182.023438 222.585938 182.460938 223.585938 182.839844 C 224.539062 183.210938 225.382812 183.390625 226.109375 183.390625 C 227.003906 183.390625 227.933594 182.867188 228.894531 181.847656 C 229.632812 181.023438 230.222656 180.097656 230.6875 179.078125 L 236.242188 179.078125 C 236.621094 178.503906 236.914062 178.070312 237.078125 177.761719 C 237.429688 178.34375 237.675781 178.785156 237.835938 179.078125 L 242.609375 179.078125 C 242.757812 179.078125 242.9375 178.972656 243.132812 178.753906 C 243.328125 178.542969 243.457031 178.402344 243.535156 178.347656 C 243.679688 178.613281 243.761719 178.863281 243.785156 179.078125 L 246.863281 179.078125 C 246.898438 179.078125 247.007812 179.003906 247.15625 178.847656 C 247.316406 178.691406 247.40625 178.605469 247.464844 178.605469 C 247.578125 178.605469 247.738281 178.765625 247.972656 179.078125 L 251.488281 179.078125 C 251.714844 178.75 251.882812 178.507812 252.007812 178.347656 C 252.148438 178.679688 252.269531 178.914062 252.339844 179.078125 L 257.058594 179.078125 C 257.308594 178.957031 257.433594 178.867188 257.480469 178.8125 M 228.507812 176.230469 C 227.753906 176.230469 227.242188 175.960938 226.9375 175.445312 C 226.960938 175.40625 226.960938 175.375 226.9375 175.339844 C 226.921875 175.203125 227.023438 175.039062 227.261719 174.808594 C 227.492188 174.574219 227.679688 174.457031 227.796875 174.457031 C 228.050781 174.457031 228.316406 174.671875 228.558594 175.089844 C 228.589844 175.140625 228.75 175.464844 229.035156 176.085938 C 228.851562 176.179688 228.691406 176.230469 228.507812 176.230469 M 309.492188 170.203125 L 311.710938 171.3125 C 312.566406 170.710938 313.109375 170.132812 313.300781 169.601562 L 311.058594 168.34375 C 310.832031 168.566406 310.597656 168.785156 310.359375 168.996094 C 309.941406 169.351562 309.730469 169.515625 309.667969 169.515625 C 309.378906 169.515625 308.714844 169.144531 307.6875 168.398438 C 306.867188 169.140625 306.3125 169.726562 306.015625 170.121094 C 307.34375 170.882812 308.085938 171.273438 308.257812 171.273438 C 308.238281 171.273438 308.632812 170.917969 309.492188 170.203125 M 148.863281 179.078125 C 149.386719 179.078125 149.648438 177.761719 149.648438 175.136719 C 149.648438 174.304688 149.46875 173.453125 149.105469 172.574219 C 148.742188 171.695312 148.242188 171.011719 147.640625 170.511719 L 146.113281 173.210938 C 146.429688 173.476562 146.761719 173.941406 147.136719 174.597656 C 147.515625 175.269531 147.707031 175.785156 147.707031 176.136719 C 147.707031 176.203125 147.6875 176.230469 147.679688 176.230469 L 141.863281 176.230469 C 141.347656 176.230469 141.074219 176.085938 141.019531 175.8125 C 140.796875 174.875 140.597656 173.355469 140.4375 171.222656 C 140.34375 169.648438 140.230469 168.0625 140.132812 166.476562 C 139.945312 166.632812 139.625 167.027344 139.132812 167.648438 C 138.601562 168.324219 138.351562 168.71875 138.351562 168.847656 L 139.253906 179.078125 Z M 326.683594 174.863281 C 326.683594 173.328125 326.433594 170.867188 325.921875 167.46875 C 324.957031 168.796875 324.316406 169.9375 323.984375 170.898438 L 325.160156 179.304688 C 326.167969 178.121094 326.683594 176.640625 326.683594 174.863281 M 274.667969 167.980469 C 275.851562 168.703125 276.589844 169.082031 276.8125 169.082031 C 276.917969 169.082031 277.183594 168.824219 277.625 168.324219 C 278.007812 167.867188 278.257812 167.535156 278.371094 167.335938 L 276.183594 166.15625 C 275.242188 166.878906 274.78125 167.246094 274.800781 167.246094 C 274.503906 167.246094 273.851562 166.878906 272.835938 166.15625 C 271.972656 167.113281 271.449219 167.691406 271.300781 167.898438 C 272.226562 168.492188 272.949219 168.871094 273.46875 169.019531 C 274.089844 168.453125 274.488281 168.105469 274.667969 167.980469 M 308.625 168.152344 C 309.097656 168.542969 309.378906 168.738281 309.460938 168.738281 C 309.617188 168.738281 309.90625 168.550781 310.328125 168.183594 C 310.683594 167.863281 310.929688 167.609375 311.042969 167.4375 C 310.132812 166.515625 309.601562 166.046875 309.460938 166.03125 C 308.425781 166.796875 307.925781 167.285156 307.925781 167.464844 C 307.925781 167.53125 308.160156 167.757812 308.625 168.152344 M 197.628906 167.980469 C 198.832031 168.703125 199.546875 169.082031 199.777344 169.082031 C 199.878906 169.082031 200.148438 168.824219 200.578125 168.324219 C 200.96875 167.867188 201.222656 167.535156 201.339844 167.335938 L 199.152344 166.15625 C 198.203125 166.878906 197.753906 167.246094 197.773438 167.246094 C 197.46875 167.246094 196.816406 166.878906 195.804688 166.15625 C 194.941406 167.113281 194.417969 167.691406 194.261719 167.898438 C 195.175781 168.492188 195.910156 168.871094 196.425781 169.019531 C 197.054688 168.453125 197.453125 168.105469 197.628906 167.980469 M 221.863281 176.074219 C 221.863281 173.28125 220.542969 171.289062 217.902344 170.109375 L 217.003906 173.109375 C 217.507812 173.175781 218.140625 173.585938 218.933594 174.308594 C 219.699219 175.042969 220.089844 175.648438 220.089844 176.121094 C 220.089844 176.152344 220.082031 176.183594 220.066406 176.230469 L 214.960938 176.230469 L 214.703125 179.078125 L 220.996094 179.078125 C 221.578125 179.078125 221.863281 178.082031 221.863281 176.074219 M 264.765625 174.863281 C 264.765625 173.328125 264.511719 170.867188 264.011719 167.46875 C 263.050781 168.796875 262.402344 169.9375 262.074219 170.898438 L 263.257812 179.304688 C 264.261719 178.121094 264.765625 176.636719 264.765625 174.863281 M 166.390625 205.800781 L 168.574219 205.800781 L 168.574219 197.539062 L 166.390625 197.539062 Z M 162.058594 198.515625 C 161.386719 197.753906 160.585938 197.375 159.675781 197.375 C 158.667969 197.375 157.84375 197.742188 157.203125 198.460938 C 156.527344 199.199219 156.207031 200.265625 156.207031 201.664062 C 156.207031 203.03125 156.53125 204.101562 157.222656 204.867188 C 157.894531 205.636719 158.699219 206.023438 159.644531 206.023438 C 160.113281 206.023438 160.578125 205.890625 161.03125 205.648438 C 161.496094 205.414062 161.878906 205.050781 162.222656 204.585938 L 162.222656 205.800781 L 164.238281 205.800781 L 164.238281 194.386719 L 162.058594 194.386719 Z M 161.558594 203.660156 C 161.199219 204.082031 160.773438 204.300781 160.277344 204.300781 C 159.640625 204.300781 159.15625 204.007812 158.804688 203.441406 C 158.5625 203.046875 158.425781 202.402344 158.425781 201.515625 C 158.425781 200.691406 158.613281 200.058594 158.964844 199.65625 C 159.3125 199.234375 159.75 199.03125 160.265625 199.03125 C 160.789062 199.03125 161.222656 199.246094 161.570312 199.660156 C 161.910156 200.089844 162.085938 200.777344 162.085938 201.722656 C 162.085938 202.589844 161.90625 203.230469 161.558594 203.660156 M 144.796875 203.089844 L 144.824219 200.546875 C 144.824219 199.59375 144.726562 198.941406 144.539062 198.601562 C 144.339844 198.253906 144.011719 197.945312 143.527344 197.707031 C 143.042969 197.488281 142.332031 197.375 141.355469 197.375 C 140.277344 197.375 139.472656 197.5625 138.921875 197.945312 C 138.386719 198.328125 138.007812 198.929688 137.78125 199.730469 L 139.734375 200.082031 C 139.878906 199.6875 140.050781 199.414062 140.277344 199.257812 C 140.484375 199.105469 140.800781 199.03125 141.1875 199.03125 C 141.757812 199.03125 142.144531 199.125 142.367188 199.304688 C 142.570312 199.488281 142.667969 199.785156 142.667969 200.226562 L 142.667969 200.4375 C 142.28125 200.609375 141.574219 200.777344 140.542969 200.980469 C 139.800781 201.117188 139.21875 201.292969 138.828125 201.480469 C 138.429688 201.671875 138.128906 201.957031 137.894531 202.320312 C 137.667969 202.6875 137.5625 203.109375 137.5625 203.578125 C 137.5625 204.269531 137.800781 204.859375 138.28125 205.328125 C 138.769531 205.78125 139.445312 206.023438 140.292969 206.023438 C 140.769531 206.023438 141.210938 205.925781 141.640625 205.738281 C 142.054688 205.546875 142.457031 205.273438 142.824219 204.914062 C 142.839844 204.953125 142.863281 205.035156 142.902344 205.160156 C 142.988281 205.441406 143.066406 205.648438 143.117188 205.800781 L 145.285156 205.800781 C 145.097656 205.398438 144.972656 205.027344 144.898438 204.6875 C 144.828125 204.339844 144.796875 203.816406 144.796875 203.089844 M 142.667969 202.28125 C 142.667969 202.808594 142.640625 203.160156 142.582031 203.355469 C 142.496094 203.636719 142.328125 203.882812 142.070312 204.078125 C 141.714844 204.335938 141.332031 204.464844 140.941406 204.464844 C 140.601562 204.464844 140.296875 204.359375 140.078125 204.128906 C 139.851562 203.898438 139.734375 203.644531 139.734375 203.339844 C 139.734375 203.019531 139.890625 202.761719 140.167969 202.566406 C 140.351562 202.4375 140.746094 202.3125 141.355469 202.179688 C 141.949219 202.050781 142.390625 201.933594 142.667969 201.839844 Z M 166.46875 196.414062 L 168.65625 196.414062 L 168.65625 194.386719 L 166.46875 194.386719 Z M 134.472656 199.523438 C 133.929688 199.246094 133.105469 198.964844 132.003906 198.714844 C 130.878906 198.445312 130.179688 198.191406 129.886719 197.949219 C 129.667969 197.753906 129.546875 197.519531 129.546875 197.246094 C 129.546875 196.960938 129.671875 196.71875 129.910156 196.539062 C 130.285156 196.269531 130.820312 196.136719 131.472656 196.136719 C 132.109375 196.136719 132.605469 196.265625 132.917969 196.523438 C 133.230469 196.78125 133.457031 197.1875 133.550781 197.785156 L 135.855469 197.703125 C 135.816406 196.648438 135.417969 195.804688 134.710938 195.171875 C 133.988281 194.535156 132.90625 194.210938 131.484375 194.210938 C 130.617188 194.210938 129.871094 194.347656 129.242188 194.617188 C 128.628906 194.886719 128.164062 195.273438 127.84375 195.773438 C 127.5 196.269531 127.332031 196.824219 127.332031 197.402344 C 127.332031 198.296875 127.6875 199.066406 128.394531 199.695312 C 128.875 200.144531 129.757812 200.503906 130.976562 200.816406 C 131.941406 201.046875 132.542969 201.214844 132.808594 201.308594 C 133.199219 201.453125 133.488281 201.613281 133.648438 201.800781 C 133.804688 201.992188 133.878906 202.230469 133.878906 202.484375 C 133.878906 202.910156 133.699219 203.265625 133.316406 203.585938 C 132.945312 203.898438 132.394531 204.058594 131.644531 204.058594 C 130.949219 204.058594 130.398438 203.882812 129.976562 203.535156 C 129.574219 203.171875 129.296875 202.613281 129.160156 201.871094 L 126.929688 202.09375 C 127.066406 203.378906 127.527344 204.339844 128.308594 205.019531 C 129.074219 205.691406 130.1875 206.023438 131.621094 206.023438 C 132.605469 206.023438 133.441406 205.875 134.085938 205.597656 C 134.75 205.328125 135.265625 204.898438 135.644531 204.328125 C 135.988281 203.757812 136.179688 203.144531 136.179688 202.496094 C 136.179688 201.777344 136.03125 201.171875 135.71875 200.6875 C 135.410156 200.191406 135.007812 199.816406 134.472656 199.523438 M 322.507812 203.40625 L 320.519531 197.539062 L 318.234375 197.539062 L 321.351562 205.828125 C 321.21875 206.277344 321.039062 206.671875 320.792969 206.980469 C 320.554688 207.277344 320.179688 207.429688 319.667969 207.429688 C 319.402344 207.429688 319.105469 207.394531 318.757812 207.328125 L 318.949219 209.039062 C 319.339844 209.117188 319.761719 209.160156 320.179688 209.160156 C 320.59375 209.160156 320.949219 209.117188 321.285156 209.039062 C 321.621094 208.941406 321.898438 208.824219 322.125 208.671875 C 322.332031 208.507812 322.539062 208.292969 322.707031 208.035156 C 322.878906 207.789062 323.054688 207.429688 323.246094 206.941406 L 323.78125 205.476562 L 326.679688 197.539062 L 324.417969 197.539062 Z M 152.265625 201.046875 C 152.265625 202.230469 152.214844 202.976562 152.097656 203.277344 C 151.984375 203.589844 151.785156 203.847656 151.488281 204.054688 C 151.191406 204.261719 150.855469 204.359375 150.488281 204.359375 C 150.164062 204.359375 149.886719 204.289062 149.675781 204.121094 C 149.464844 203.972656 149.324219 203.769531 149.230469 203.515625 C 149.152344 203.238281 149.117188 202.523438 149.117188 201.351562 L 149.117188 197.539062 L 146.9375 197.539062 L 146.9375 202.785156 C 146.9375 203.5625 147.027344 204.171875 147.230469 204.609375 C 147.425781 205.050781 147.742188 205.402344 148.183594 205.644531 C 148.625 205.890625 149.132812 206.023438 149.683594 206.023438 C 150.226562 206.023438 150.75 205.890625 151.242188 205.621094 C 151.726562 205.351562 152.132812 205 152.417969 204.5625 L 152.417969 205.800781 L 154.4375 205.800781 L 154.4375 197.539062 L 152.265625 197.539062 Z M 219.601562 196.414062 L 221.789062 196.414062 L 221.789062 194.386719 L 219.601562 194.386719 Z M 232.898438 196.414062 L 235.082031 196.414062 L 235.082031 194.386719 L 232.898438 194.386719 Z M 245.621094 203.40625 L 243.640625 197.539062 L 241.359375 197.539062 L 244.472656 205.832031 C 244.347656 206.277344 244.15625 206.675781 243.90625 206.980469 C 243.683594 207.277344 243.296875 207.429688 242.800781 207.429688 C 242.523438 207.429688 242.222656 207.394531 241.878906 207.328125 L 242.074219 209.042969 C 242.46875 209.121094 242.878906 209.160156 243.296875 209.160156 C 243.714844 209.160156 244.074219 209.121094 244.402344 209.042969 C 244.742188 208.941406 245.011719 208.824219 245.234375 208.671875 C 245.453125 208.507812 245.65625 208.292969 245.820312 208.035156 C 245.996094 207.789062 246.1875 207.429688 246.367188 206.941406 L 246.914062 205.476562 L 249.796875 197.539062 L 247.546875 197.539062 Z M 240.046875 204.195312 C 239.890625 204.195312 239.765625 204.15625 239.671875 204.082031 C 239.5625 204.007812 239.5 203.914062 239.46875 203.808594 C 239.449219 203.6875 239.429688 203.300781 239.429688 202.617188 L 239.429688 199.265625 L 240.921875 199.265625 L 240.921875 197.539062 L 239.429688 197.539062 L 239.429688 194.632812 L 237.242188 195.90625 L 237.242188 197.539062 L 236.246094 197.539062 L 236.246094 199.265625 L 237.242188 199.265625 L 237.242188 202.898438 C 237.242188 203.675781 237.273438 204.191406 237.308594 204.445312 C 237.375 204.808594 237.46875 205.082031 237.609375 205.300781 C 237.761719 205.515625 237.996094 205.691406 238.3125 205.8125 C 238.628906 205.949219 238.988281 206.023438 239.363281 206.023438 C 240.007812 206.023438 240.582031 205.898438 241.082031 205.695312 L 240.921875 203.988281 C 240.539062 204.121094 240.242188 204.195312 240.046875 204.195312 M 232.6875 205.800781 L 234.867188 205.800781 L 234.867188 197.539062 L 232.6875 197.539062 Z M 228.433594 203.886719 C 228.171875 204.121094 227.828125 204.25 227.417969 204.25 C 226.863281 204.25 226.421875 204.042969 226.101562 203.636719 C 225.769531 203.230469 225.609375 202.535156 225.609375 201.546875 C 225.609375 200.660156 225.769531 200.03125 226.101562 199.648438 C 226.410156 199.265625 226.851562 199.082031 227.390625 199.082031 C 227.789062 199.082031 228.132812 199.183594 228.375 199.402344 C 228.640625 199.617188 228.796875 199.921875 228.863281 200.34375 L 231.023438 199.972656 C 230.765625 199.089844 230.34375 198.445312 229.75 198.015625 C 229.160156 197.585938 228.363281 197.375 227.351562 197.375 C 226.132812 197.375 225.164062 197.753906 224.457031 198.511719 C 223.738281 199.265625 223.367188 200.339844 223.367188 201.703125 C 223.367188 203.050781 223.738281 204.105469 224.4375 204.878906 C 225.160156 205.636719 226.117188 206.023438 227.328125 206.023438 C 228.375 206.023438 229.222656 205.769531 229.859375 205.25 C 230.492188 204.75 230.910156 203.996094 231.140625 203.007812 L 228.972656 202.644531 C 228.875 203.238281 228.691406 203.648438 228.433594 203.886719 M 295.566406 197.375 C 295.011719 197.375 294.515625 197.5 294.0625 197.753906 C 293.621094 198 293.253906 198.332031 292.992188 198.746094 L 292.992188 197.539062 L 290.949219 197.539062 L 290.949219 208.941406 L 293.125 208.941406 L 293.125 204.8125 C 293.539062 205.25 293.9375 205.546875 294.300781 205.738281 C 294.675781 205.925781 295.085938 206.023438 295.554688 206.023438 C 296.515625 206.023438 297.324219 205.636719 298.003906 204.863281 C 298.671875 204.101562 299.015625 203.023438 299.015625 201.652344 C 299.015625 200.304688 298.671875 199.253906 298.007812 198.503906 C 297.347656 197.753906 296.53125 197.375 295.566406 197.375 M 296.273438 203.664062 C 295.9375 204.074219 295.515625 204.269531 294.996094 204.269531 C 294.464844 204.269531 294.023438 204.058594 293.644531 203.613281 C 293.285156 203.160156 293.109375 202.472656 293.109375 201.546875 C 293.109375 200.75 293.277344 200.113281 293.628906 199.703125 C 293.988281 199.285156 294.417969 199.082031 294.976562 199.082031 C 295.480469 199.082031 295.910156 199.292969 296.253906 199.730469 C 296.601562 200.144531 296.773438 200.777344 296.773438 201.660156 C 296.773438 202.589844 296.609375 203.261719 296.273438 203.664062 M 287.6875 197.742188 C 287.265625 197.496094 286.746094 197.375 286.144531 197.375 C 285.671875 197.375 285.21875 197.488281 284.800781 197.703125 C 284.371094 197.914062 283.984375 198.253906 283.621094 198.671875 C 283.375 198.253906 283.058594 197.914062 282.667969 197.703125 C 282.28125 197.488281 281.816406 197.375 281.285156 197.375 C 280.292969 197.375 279.433594 197.796875 278.714844 198.664062 L 278.714844 197.539062 L 276.703125 197.539062 L 276.703125 205.800781 L 278.878906 205.800781 L 278.878906 201.785156 C 278.878906 200.992188 278.933594 200.433594 279.050781 200.089844 C 279.175781 199.742188 279.367188 199.488281 279.628906 199.304688 C 279.910156 199.128906 280.210938 199.03125 280.546875 199.03125 C 280.828125 199.03125 281.054688 199.085938 281.21875 199.199219 C 281.382812 199.3125 281.503906 199.488281 281.582031 199.730469 C 281.664062 199.953125 281.6875 200.464844 281.6875 201.28125 L 281.6875 205.800781 L 283.882812 205.800781 L 283.882812 201.824219 C 283.882812 201.046875 283.941406 200.480469 284.0625 200.113281 C 284.175781 199.769531 284.371094 199.5 284.640625 199.304688 C 284.910156 199.132812 285.195312 199.03125 285.507812 199.03125 C 285.921875 199.03125 286.238281 199.179688 286.457031 199.5 C 286.585938 199.738281 286.660156 200.265625 286.660156 201.082031 L 286.660156 205.800781 L 288.851562 205.800781 L 288.851562 200.53125 C 288.851562 199.746094 288.777344 199.171875 288.621094 198.828125 C 288.414062 198.359375 288.109375 197.984375 287.6875 197.742188 M 270.878906 197.375 C 270.074219 197.375 269.347656 197.546875 268.6875 197.910156 C 268.019531 198.265625 267.511719 198.789062 267.160156 199.457031 C 266.800781 200.144531 266.621094 200.859375 266.621094 201.570312 C 266.621094 202.527344 266.800781 203.324219 267.160156 203.996094 C 267.511719 204.660156 268.039062 205.164062 268.722656 205.5 C 269.417969 205.847656 270.144531 206.023438 270.898438 206.023438 C 272.128906 206.023438 273.140625 205.601562 273.953125 204.785156 C 274.757812 203.957031 275.160156 202.933594 275.160156 201.671875 C 275.160156 200.433594 274.769531 199.402344 273.957031 198.59375 C 273.160156 197.777344 272.132812 197.375 270.878906 197.375 M 272.332031 203.589844 C 271.957031 204.023438 271.46875 204.25 270.890625 204.25 C 270.324219 204.25 269.835938 204.023438 269.457031 203.589844 C 269.054688 203.15625 268.867188 202.527344 268.867188 201.695312 C 268.867188 200.875 269.054688 200.234375 269.457031 199.796875 C 269.835938 199.359375 270.324219 199.148438 270.890625 199.148438 C 271.46875 199.148438 271.957031 199.359375 272.332031 199.796875 C 272.726562 200.234375 272.921875 200.867188 272.921875 201.671875 C 272.921875 202.507812 272.726562 203.15625 272.332031 203.589844 M 262.035156 203.441406 C 261.601562 203.832031 261.0625 204.023438 260.464844 204.023438 C 259.632812 204.023438 258.957031 203.730469 258.433594 203.109375 C 257.921875 202.503906 257.652344 201.472656 257.652344 200.039062 C 257.652344 198.679688 257.925781 197.703125 258.441406 197.089844 C 258.984375 196.484375 259.664062 196.183594 260.503906 196.183594 C 261.125 196.183594 261.644531 196.355469 262.078125 196.695312 C 262.511719 197.03125 262.792969 197.5 262.929688 198.09375 L 265.1875 197.539062 C 264.9375 196.636719 264.539062 195.9375 264.023438 195.464844 C 263.144531 194.628906 262.019531 194.214844 260.621094 194.214844 C 259.027344 194.214844 257.734375 194.757812 256.761719 195.792969 C 255.78125 196.835938 255.277344 198.320312 255.277344 200.207031 C 255.277344 202.007812 255.769531 203.410156 256.746094 204.445312 C 257.71875 205.476562 258.960938 205.988281 260.476562 205.988281 C 261.714844 205.988281 262.722656 205.691406 263.515625 205.082031 C 264.304688 204.464844 264.886719 203.539062 265.222656 202.28125 L 262.980469 201.59375 C 262.792969 202.4375 262.476562 203.050781 262.035156 203.441406 M 196.296875 198.59375 C 195.601562 197.777344 194.625 197.375 193.398438 197.375 C 192.300781 197.375 191.398438 197.777344 190.679688 198.546875 C 189.976562 199.3125 189.613281 200.378906 189.613281 201.761719 C 189.613281 202.914062 189.894531 203.863281 190.425781 204.605469 C 191.117188 205.546875 192.183594 206.023438 193.617188 206.023438 C 194.527344 206.023438 195.273438 205.804688 195.886719 205.386719 C 196.492188 204.96875 196.933594 204.359375 197.207031 203.554688 L 195.023438 203.199219 C 194.902344 203.617188 194.734375 203.917969 194.503906 204.105469 C 194.273438 204.300781 193.976562 204.382812 193.632812 204.382812 C 193.140625 204.382812 192.722656 204.210938 192.375 203.847656 C 192.039062 203.484375 191.859375 202.964844 191.847656 202.320312 L 197.308594 202.320312 C 197.347656 200.640625 197.011719 199.394531 196.296875 198.59375 M 191.894531 200.984375 C 191.882812 200.378906 192.03125 199.90625 192.347656 199.5625 C 192.65625 199.199219 193.058594 199.03125 193.535156 199.03125 C 193.984375 199.03125 194.367188 199.195312 194.675781 199.527344 C 194.988281 199.863281 195.152344 200.347656 195.167969 200.984375 Z M 219.417969 205.800781 L 221.601562 205.800781 L 221.601562 197.539062 L 219.417969 197.539062 Z M 316.503906 198.289062 C 316.300781 198.03125 315.996094 197.8125 315.601562 197.632812 C 315.203125 197.46875 314.769531 197.375 314.289062 197.375 C 313.207031 197.375 312.300781 197.832031 311.589844 198.742188 L 311.589844 197.539062 L 309.574219 197.539062 L 309.574219 205.800781 L 311.75 205.800781 L 311.75 202.054688 C 311.75 201.132812 311.800781 200.503906 311.917969 200.164062 C 312.015625 199.832031 312.230469 199.542969 312.519531 199.335938 C 312.808594 199.136719 313.152344 199.03125 313.542969 199.03125 C 313.824219 199.03125 314.074219 199.101562 314.28125 199.246094 C 314.480469 199.390625 314.636719 199.59375 314.734375 199.859375 C 314.8125 200.113281 314.875 200.691406 314.875 201.585938 L 314.875 205.796875 L 317.050781 205.796875 L 317.050781 200.675781 C 317.050781 200.050781 316.996094 199.550781 316.929688 199.210938 C 316.851562 198.863281 316.703125 198.558594 316.503906 198.289062 M 307.402344 203.089844 L 307.425781 200.546875 C 307.425781 199.59375 307.335938 198.941406 307.144531 198.601562 C 306.9375 198.253906 306.613281 197.945312 306.136719 197.707031 C 305.652344 197.488281 304.933594 197.375 303.953125 197.375 C 302.894531 197.375 302.078125 197.5625 301.527344 197.945312 C 300.984375 198.328125 300.609375 198.929688 300.382812 199.730469 L 302.351562 200.082031 C 302.484375 199.6875 302.664062 199.414062 302.871094 199.257812 C 303.09375 199.105469 303.398438 199.03125 303.785156 199.03125 C 304.359375 199.03125 304.753906 199.125 304.960938 199.304688 C 305.1875 199.488281 305.28125 199.785156 305.28125 200.226562 L 305.28125 200.4375 C 304.882812 200.609375 304.175781 200.777344 303.164062 200.980469 C 302.410156 201.117188 301.84375 201.292969 301.433594 201.480469 C 301.039062 201.671875 300.726562 201.957031 300.503906 202.320312 C 300.285156 202.6875 300.171875 203.109375 300.171875 203.578125 C 300.171875 204.269531 300.410156 204.859375 300.890625 205.328125 C 301.386719 205.78125 302.054688 206.023438 302.894531 206.023438 C 303.378906 206.023438 303.816406 205.925781 304.246094 205.738281 C 304.679688 205.546875 305.058594 205.273438 305.433594 204.914062 C 305.457031 204.953125 305.476562 205.035156 305.507812 205.160156 C 305.585938 205.441406 305.660156 205.648438 305.726562 205.800781 L 307.90625 205.800781 C 307.699219 205.398438 307.582031 205.027344 307.511719 204.6875 C 307.425781 204.339844 307.402344 203.816406 307.402344 203.089844 M 305.28125 202.28125 C 305.28125 202.808594 305.25 203.160156 305.1875 203.355469 C 305.109375 203.636719 304.9375 203.882812 304.679688 204.078125 C 304.316406 204.335938 303.945312 204.464844 303.554688 204.464844 C 303.199219 204.464844 302.917969 204.359375 302.691406 204.128906 C 302.453125 203.898438 302.351562 203.644531 302.351562 203.339844 C 302.351562 203.019531 302.484375 202.761719 302.765625 202.566406 C 302.949219 202.4375 303.351562 202.3125 303.953125 202.179688 C 304.554688 202.050781 305 201.933594 305.277344 201.839844 L 305.277344 202.28125 Z M 185.828125 205.800781 L 188.007812 205.800781 L 188.007812 194.386719 L 185.828125 194.386719 Z M 177.535156 200.777344 L 183.265625 200.777344 L 183.265625 198.835938 L 177.535156 198.835938 L 177.535156 196.324219 L 183.660156 196.324219 L 183.660156 194.386719 L 175.253906 194.386719 L 175.253906 205.800781 L 183.894531 205.800781 L 183.894531 203.867188 L 177.535156 203.867188 Z M 203.671875 203.886719 C 203.410156 204.121094 203.074219 204.25 202.664062 204.25 C 202.109375 204.25 201.671875 204.042969 201.351562 203.636719 C 201.027344 203.230469 200.863281 202.535156 200.863281 201.546875 C 200.863281 200.660156 201.027344 200.03125 201.34375 199.648438 C 201.667969 199.265625 202.09375 199.082031 202.640625 199.082031 C 203.046875 199.082031 203.367188 199.183594 203.632812 199.402344 C 203.882812 199.617188 204.046875 199.921875 204.121094 200.34375 L 206.273438 199.972656 C 206.011719 199.089844 205.597656 198.445312 205.003906 198.015625 C 204.410156 197.585938 203.617188 197.375 202.609375 197.375 C 201.390625 197.375 200.410156 197.753906 199.707031 198.511719 C 198.984375 199.265625 198.636719 200.339844 198.636719 201.703125 C 198.636719 203.050781 198.980469 204.105469 199.707031 204.878906 C 200.410156 205.636719 201.375 206.023438 202.574219 206.023438 C 203.632812 206.023438 204.476562 205.769531 205.105469 205.25 C 205.738281 204.75 206.167969 203.996094 206.386719 203.007812 L 204.234375 202.644531 C 204.117188 203.238281 203.933594 203.648438 203.671875 203.886719 M 216.09375 197.628906 C 215.824219 197.796875 215.519531 198.160156 215.171875 198.714844 L 215.171875 197.539062 L 213.152344 197.539062 L 213.152344 205.800781 L 215.328125 205.800781 L 215.328125 203.261719 C 215.328125 201.851562 215.402344 200.941406 215.519531 200.496094 C 215.636719 200.058594 215.808594 199.753906 216.003906 199.582031 C 216.222656 199.417969 216.484375 199.335938 216.789062 199.335938 C 217.101562 199.335938 217.4375 199.457031 217.804688 199.6875 L 218.488281 197.785156 C 218.019531 197.503906 217.558594 197.375 217.042969 197.375 C 216.699219 197.375 216.378906 197.46875 216.09375 197.628906 M 210.875 204.195312 C 210.726562 204.195312 210.605469 204.15625 210.5 204.082031 C 210.398438 204.007812 210.335938 203.914062 210.3125 203.808594 C 210.28125 203.6875 210.261719 203.300781 210.261719 202.617188 L 210.261719 199.265625 L 211.75 199.265625 L 211.75 197.539062 L 210.261719 197.539062 L 210.261719 194.632812 L 208.074219 195.90625 L 208.074219 197.539062 L 207.085938 197.539062 L 207.085938 199.265625 L 208.074219 199.265625 L 208.074219 202.898438 C 208.074219 203.675781 208.101562 204.191406 208.144531 204.445312 C 208.203125 204.808594 208.3125 205.082031 208.457031 205.300781 C 208.597656 205.515625 208.828125 205.691406 209.132812 205.8125 C 209.460938 205.949219 209.816406 206.023438 210.199219 206.023438 C 210.84375 206.023438 211.410156 205.898438 211.90625 205.695312 L 211.757812 203.988281 C 211.371094 204.121094 211.078125 204.195312 210.875 204.195312 " fill-opacity="1" fill-rule="nonzero"/></svg>